# xmcd
#
# Track frame offsets:
#	150
#	33699
#	55701
#	73459
#	94214
#	116245
#	128702
#	137813
#	150748
#	167446
#	187441
#	205354
#	219694
#	247285
#
# Disc length: 3568 seconds
#
# Revision: 1
# Processed by: cddbd v1.5.2PL0 Copyright (c) Steve Scherf et al.
# Submitted via: EZCDAudioConverter 1.3.4.1
#
DISCID=e70dee0e
DTITLE=Various Artist - Peter Green Songbook - Vol. 2
DYEAR=1995
DGENRE=Blues
TTITLE0=Billy Sheehan - Oh Well
TTITLE1=Zoot Money - I Loved Another Woman
TTITLE2=Larry Astor - Whatcha Gonna Do
TTITLE3=Paul Jones, Pete Brown - Albatross
TTITLE4=Jennifer Ferguson - Closing My Eyes
TTITLE5=Ray Gomez - Lazy Poker Blues
TTITLE6=Ray Gomez - Evil Woman Blues
TTITLE7=Stu Hamm - Fleetwood Mac
TTITLE8=Mick Abrahms - The Same Way
TTITLE9=Damon Duewhite - Watch Out
TTITLE10=Mark Lembo - A Fool No More
TTITLE11=Ken Hensley - Hellhound On My Trail
TTITLE12=Jim McCarty - Drifting
TTITLE13=Dave Peverett - If You Be My Baby
EXTD=
EXTT0=
EXTT1=
EXTT2=
EXTT3=
EXTT4=
EXTT5=
EXTT6=
EXTT7=
EXTT8=
EXTT9=
EXTT10=
EXTT11=
EXTT12=
EXTT13=
PLAYORDER=
